<mxfile host="app.diagrams.net" modified="2020-12-06T10:30:32.003Z" agent="5.0 (Windows NT 6.1; Win64; x64) AppleWebKit/537.36 (KHTML, like Gecko) Chrome/86.0.4240.198 Safari/537.36" etag="j0nPwzYpkd80JHe10q74" version="13.10.8" type="github">
  <diagram id="a4amCYSTDgef2Uy3dYjO" name="Page-1">
    <mxGraphModel dx="1021" dy="500" grid="1" gridSize="10" guides="1" tooltips="1" connect="1" arrows="1" fold="1" page="1" pageScale="1" pageWidth="827" pageHeight="1169" math="0" shadow="0">
      <root>
        <mxCell id="0" />
        <mxCell id="1" parent="0" />
        <mxCell id="5Df-Ke02d9atA7aEddo9-17" style="edgeStyle=orthogonalEdgeStyle;rounded=0;orthogonalLoop=1;jettySize=auto;html=1;exitX=0.5;exitY=1;exitDx=0;exitDy=0;entryX=0.5;entryY=0;entryDx=0;entryDy=0;" parent="1" source="5Df-Ke02d9atA7aEddo9-1" target="5Df-Ke02d9atA7aEddo9-7" edge="1">
          <mxGeometry relative="1" as="geometry" />
        </mxCell>
        <mxCell id="5Df-Ke02d9atA7aEddo9-1" value="&lt;font style=&quot;font-size: 18px&quot;&gt;&lt;b&gt;全路网实时&lt;br&gt;交通流数据&lt;/b&gt;&lt;/font&gt;" style="rounded=1;whiteSpace=wrap;html=1;fillColor=#CCFFFF;" parent="1" vertex="1">
          <mxGeometry x="470" y="120" width="120" height="60" as="geometry" />
        </mxCell>
        <mxCell id="5Df-Ke02d9atA7aEddo9-15" style="edgeStyle=orthogonalEdgeStyle;rounded=0;orthogonalLoop=1;jettySize=auto;html=1;exitX=0.5;exitY=1;exitDx=0;exitDy=0;entryX=0;entryY=0.5;entryDx=0;entryDy=0;" parent="1" source="5Df-Ke02d9atA7aEddo9-2" target="5Df-Ke02d9atA7aEddo9-6" edge="1">
          <mxGeometry relative="1" as="geometry" />
        </mxCell>
        <mxCell id="5Df-Ke02d9atA7aEddo9-2" value="&lt;font style=&quot;font-size: 18px&quot;&gt;&lt;b&gt;车辆工况数据&lt;/b&gt;&lt;/font&gt;" style="rounded=1;whiteSpace=wrap;html=1;fillColor=#CCFFFF;" parent="1" vertex="1">
          <mxGeometry x="20" y="120" width="120" height="60" as="geometry" />
        </mxCell>
        <mxCell id="5Df-Ke02d9atA7aEddo9-14" style="edgeStyle=orthogonalEdgeStyle;rounded=0;orthogonalLoop=1;jettySize=auto;html=1;exitX=0.5;exitY=1;exitDx=0;exitDy=0;entryX=0.5;entryY=0;entryDx=0;entryDy=0;" parent="1" source="5Df-Ke02d9atA7aEddo9-3" target="5Df-Ke02d9atA7aEddo9-6" edge="1">
          <mxGeometry relative="1" as="geometry" />
        </mxCell>
        <mxCell id="5Df-Ke02d9atA7aEddo9-3" value="&lt;b&gt;&lt;font style=&quot;font-size: 18px&quot;&gt;环境数据、油品、行车数据&lt;/font&gt;&lt;/b&gt;" style="rounded=1;whiteSpace=wrap;html=1;fillColor=#CCFFFF;" parent="1" vertex="1">
          <mxGeometry x="320" y="120" width="120" height="60" as="geometry" />
        </mxCell>
        <mxCell id="5Df-Ke02d9atA7aEddo9-12" style="edgeStyle=orthogonalEdgeStyle;rounded=0;orthogonalLoop=1;jettySize=auto;html=1;exitX=0.5;exitY=1;exitDx=0;exitDy=0;" parent="1" source="5Df-Ke02d9atA7aEddo9-4" target="5Df-Ke02d9atA7aEddo9-5" edge="1">
          <mxGeometry relative="1" as="geometry" />
        </mxCell>
        <mxCell id="5Df-Ke02d9atA7aEddo9-4" value="&lt;font style=&quot;font-size: 18px&quot;&gt;&lt;b&gt;道路车辆&lt;br&gt;技术分布&lt;/b&gt;&lt;/font&gt;" style="rounded=1;whiteSpace=wrap;html=1;fillColor=#CCFFFF;" parent="1" vertex="1">
          <mxGeometry x="170" y="120" width="120" height="60" as="geometry" />
        </mxCell>
        <mxCell id="5Df-Ke02d9atA7aEddo9-13" style="edgeStyle=orthogonalEdgeStyle;rounded=0;orthogonalLoop=1;jettySize=auto;html=1;exitX=0.5;exitY=1;exitDx=0;exitDy=0;entryX=0.5;entryY=0;entryDx=0;entryDy=0;" parent="1" source="5Df-Ke02d9atA7aEddo9-5" target="5Df-Ke02d9atA7aEddo9-6" edge="1">
          <mxGeometry relative="1" as="geometry" />
        </mxCell>
        <mxCell id="5Df-Ke02d9atA7aEddo9-5" value="&lt;font style=&quot;font-size: 18px&quot;&gt;&lt;b&gt;计算基本&lt;br&gt;排放率&lt;/b&gt;&lt;/font&gt;" style="shape=process;whiteSpace=wrap;html=1;backgroundOutline=1;fillColor=#FFCCCC;" parent="1" vertex="1">
          <mxGeometry x="170" y="200" width="120" height="60" as="geometry" />
        </mxCell>
        <mxCell id="61j8PNGENGU0ga6_V8fi-1" style="edgeStyle=orthogonalEdgeStyle;rounded=0;orthogonalLoop=1;jettySize=auto;html=1;exitX=1;exitY=0.5;exitDx=0;exitDy=0;" edge="1" parent="1" source="5Df-Ke02d9atA7aEddo9-6" target="5Df-Ke02d9atA7aEddo9-7">
          <mxGeometry relative="1" as="geometry" />
        </mxCell>
        <mxCell id="5Df-Ke02d9atA7aEddo9-6" value="&lt;font style=&quot;font-size: 18px&quot;&gt;&lt;b&gt;计算修正&lt;br&gt;排放率&lt;/b&gt;&lt;/font&gt;" style="shape=process;whiteSpace=wrap;html=1;backgroundOutline=1;fillColor=#FFCCCC;" parent="1" vertex="1">
          <mxGeometry x="280" y="300" width="120" height="60" as="geometry" />
        </mxCell>
        <mxCell id="61j8PNGENGU0ga6_V8fi-2" style="edgeStyle=orthogonalEdgeStyle;rounded=0;orthogonalLoop=1;jettySize=auto;html=1;exitX=1;exitY=0.5;exitDx=0;exitDy=0;" edge="1" parent="1" source="5Df-Ke02d9atA7aEddo9-7" target="5Df-Ke02d9atA7aEddo9-8">
          <mxGeometry relative="1" as="geometry" />
        </mxCell>
        <mxCell id="5Df-Ke02d9atA7aEddo9-7" value="&lt;font style=&quot;font-size: 18px&quot;&gt;&lt;b&gt;计算每种车型的排放量&lt;/b&gt;&lt;/font&gt;" style="shape=process;whiteSpace=wrap;html=1;backgroundOutline=1;fillColor=#FFCCCC;" parent="1" vertex="1">
          <mxGeometry x="470" y="300" width="120" height="60" as="geometry" />
        </mxCell>
        <mxCell id="5Df-Ke02d9atA7aEddo9-8" value="&lt;font style=&quot;font-size: 18px&quot;&gt;&lt;b&gt;计算全路网全部车型&lt;br&gt;排放量&lt;/b&gt;&lt;/font&gt;" style="shape=process;whiteSpace=wrap;html=1;backgroundOutline=1;fillColor=#FFCCCC;" parent="1" vertex="1">
          <mxGeometry x="660" y="300" width="120" height="60" as="geometry" />
        </mxCell>
      </root>
    </mxGraphModel>
  </diagram>
</mxfile>
